<?xml version="1.0" encoding="UTF-8" standalone="no"?>
<svg
   xmlns:dc="http://purl.org/dc/elements/1.1/"
   xmlns:cc="http://creativecommons.org/ns#"
   xmlns:rdf="http://www.w3.org/1999/02/22-rdf-syntax-ns#"
   xmlns:svg="http://www.w3.org/2000/svg"
   xmlns="http://www.w3.org/2000/svg"
   xmlns:sodipodi="http://sodipodi.sourceforge.net/DTD/sodipodi-0.dtd"
   xmlns:inkscape="http://www.inkscape.org/namespaces/inkscape"
   id="layer"
   width="652"
   height="355"
   version="1.1"
   viewBox="-153 -46 652 355"
   xml:space="preserve"
   sodipodi:docname="facebook-partner-logo-vector.svg"
   inkscape:version="1.0.2 (e86c8708, 2021-01-15)"><sodipodi:namedview
   pagecolor="#ffffff"
   bordercolor="#666666"
   borderopacity="1"
   objecttolerance="10"
   gridtolerance="10"
   guidetolerance="10"
   inkscape:pageopacity="0"
   inkscape:pageshadow="2"
   inkscape:window-width="1277"
   inkscape:window-height="745"
   id="namedview70"
   showgrid="false"
   inkscape:zoom="1.8941718"
   inkscape:cx="178.70607"
   inkscape:cy="135.26518"
   inkscape:window-x="0"
   inkscape:window-y="23"
   inkscape:window-maximized="0"
   inkscape:current-layer="layer" /><metadata
   id="metadata10"><rdf:RDF><cc:Work
       rdf:about=""><dc:format>image/svg+xml</dc:format><dc:type
         rdf:resource="http://purl.org/dc/dcmitype/StillImage" /><dc:title /></cc:Work></rdf:RDF></metadata><defs
   id="defs26"><linearGradient
     id="Grad_Logo2-9"
     x1="45"
     x2="45"
     y1="139"
     y2="66"
     gradientTransform="matrix(.69824 0 0 .65285 -125.67 19.614)"
     gradientUnits="userSpaceOnUse"><stop
       stop-color="#0082fb"
       offset="0"
       id="stop12" /><stop
       stop-color="#0064e0"
       offset="1"
       id="stop14" /></linearGradient><linearGradient
     id="Grad_Logo1-7"
     x1="61"
     x2="259"
     y1="117"
     y2="127"
     gradientTransform="matrix(.69824 0 0 .65285 -125.67 19.614)"
     gradientUnits="userSpaceOnUse"><stop
       stop-color="#0064e1"
       offset="0"
       id="stop17" /><stop
       stop-color="#0064e1"
       offset=".4"
       id="stop19" /><stop
       stop-color="#0073ee"
       offset=".83"
       id="stop21" /><stop
       stop-color="#0082fb"
       offset="1"
       id="stop23" /></linearGradient></defs>
<style
   type="text/css"
   id="style28">
	.st0{fill:#E40041;}
	.st1{fill:#29235C;}
</style>


<path
   id="Text"
   d="m94.191 14.012h22.555l38.35 78.789 38.356-78.789h22.066v129.46h-18.399v-99.221l-33.635 68.709h-17.263l-33.629-68.709v99.221h-18.399zm178.98 48.27c-13.195 0-21.143 11.278-23.045 25.244h44.784c-0.9228-14.386-8.2299-25.244-21.739-25.244zm-41.287 33.199c0-29.385 16.723-50.772 41.608-50.772 24.476 0 39.09 21.116 39.09 52.341v5.7388h-62.455c2.216 15.192 11.092 25.429 25.405 25.429 11.419 0 18.556-3.9566 25.324-11.192l9.7741 13.595c-9.2092 9.6169-20.923 15.163-35.751 15.163-26.937 0-42.995-22.306-42.995-50.302zm103.01-31.346h-16.937v-17.109h16.937v-28.295h17.753v28.295h25.732v17.109h-25.732v43.365c0 14.807 4.1683 20.068 14.413 20.068 4.6768 0 7.3573-0.45625 11.318-1.2048v16.924c-4.9342 1.5826-9.6423 2.3098-14.74 2.3098-19.165 0-28.745-11.891-28.745-35.695zm118.24 16.639c-3.5656-10.223-11.519-17.751-23.208-17.751-15.192 0-24.916 12.24-24.916 32.18 0 19.441 8.9518 32.273 24.187 32.273 11.978 0 20.528-7.9131 23.936-17.758zm17.753 62.699h-17.426v-13.502c-4.8714 7.9488-13.735 15.812-28.092 15.812-23.089 0-38.519-21.95-38.519-50.58 0-28.901 15.801-50.494 39.498-50.494 11.714 0 20.904 5.3182 27.113 14.707v-12.39h17.426z"
   fill="#192830"
   stroke-width=".66897" /><g
   transform="matrix(1.1106 0 0 1.0999 13.887 -25.073)"
   fill="#666"
   aria-label="Business Suite"
   id="g59"><path
     d="m-84.667 233.15q0 4.0469-1.5313 7.1458-1.5312 3.099-4.1198 5.1042-3.0625 2.4062-6.7448 3.4271-3.6458 1.0208-9.2969 1.0208h-19.25v-54.286h16.078q5.9427 0 8.8958 0.4375 2.9531 0.4375 5.651 1.8229 2.9896 1.5677 4.3385 4.0469 1.349 2.4427 1.349 5.8698 0 3.8646-1.9688 6.599-1.9688 2.6979-5.25 4.3386v0.29166q5.5052 1.1302 8.6771 4.849 3.1719 3.6823 3.1719 9.3333zm-12.141-24.464q0-1.9688-0.65625-3.3177t-2.1146-2.1875q-1.7135-0.98438-4.1563-1.2031-2.4427-0.25521-6.0521-0.25521h-8.6042v15.677h9.3333q3.3906 0 5.3958-0.32812 2.0052-0.36459 3.7187-1.4583 1.7135-1.0938 2.4063-2.8073 0.72917-1.75 0.72917-4.1198zm4.6302 24.755q0-3.2812-0.98438-5.2136-0.98438-1.9323-3.5729-3.2812-1.75-0.91146-4.2656-1.1667-2.4792-0.29166-6.0521-0.29166h-11.339v20.198h9.5521q4.7396 0 7.7656-0.47395 3.026-0.51042 4.9583-1.8229 2.0417-1.4219 2.9896-3.2448 0.94792-1.8229 0.94792-4.7031z"
     id="path33" /><path
     d="m-41.209 249.85h-6.8542v-4.5208q-3.4635 2.7344-6.6354 4.1927-3.1719 1.4583-7 1.4583-6.4167 0-9.9896-3.901-3.5729-3.9375-3.5729-11.521v-26.432h6.8542v23.188q0 3.099 0.29167 5.3229 0.29167 2.1875 1.2396 3.7552 0.98438 1.6042 2.5521 2.3333 1.5677 0.72917 4.5573 0.72917 2.6615 0 5.7969-1.3854 3.1719-1.3854 5.9063-3.5365v-30.406h6.8542z"
     id="path35" /><path
     d="m1.3748 238.11q0 5.5781-4.6302 9.151-4.5938 3.5729-12.578 3.5729-4.5208 0-8.3125-1.0573-3.7552-1.0938-6.3073-2.3698v-7.6927h0.36458q3.2448 2.4427 7.2188 3.901 3.974 1.4219 7.6198 1.4219 4.5208 0 7.0729-1.4583 2.5521-1.4583 2.5521-4.5938 0-2.4062-1.3854-3.6458-1.3854-1.2396-5.3229-2.1146-1.4583-0.32813-3.8281-0.76563-2.3333-0.4375-4.2656-0.94791-5.3594-1.4219-7.6198-4.1563-2.224-2.7708-2.224-6.7812 0-2.5156 1.0208-4.7396 1.0573-2.224 3.1719-3.974 2.0417-1.7135 5.1771-2.6979 3.1719-1.0208 7.0729-1.0208 3.6458 0 7.3646 0.91146 3.7552 0.875 6.2344 2.151v7.3281h-0.36458q-2.625-1.9323-6.3802-3.2448-3.7552-1.349-7.3646-1.349-3.7552 0-6.3438 1.4583-2.5885 1.4219-2.5885 4.2656 0 2.5156 1.5677 3.7917 1.5312 1.276 4.9583 2.0781 1.8958 0.4375 4.2292 0.875 2.3698 0.4375 3.9375 0.80208 4.776 1.0938 7.3646 3.7552 2.5885 2.6979 2.5885 7.1458z"
     id="path37" /><path
     d="m18.583 202.31h-7.7292v-7.1094h7.7292zm-0.4375 47.542h-6.8542v-40.724h6.8542z"
     id="path39" /><path
     d="m65.833 249.85h-6.8542v-23.188q0-2.8073-0.32812-5.25-0.32812-2.4792-1.2031-3.8646-0.91146-1.5312-2.625-2.2604-1.7135-0.76563-4.4479-0.76563-2.8073 0-5.8698 1.3854-3.0625 1.3854-5.8698 3.5365v30.406h-6.8542v-40.724h6.8542v4.5208q3.2083-2.6615 6.6354-4.1562t7.0365-1.4948q6.599 0 10.063 3.974 3.4635 3.974 3.4635 11.448z"
     id="path41" /><path
     d="m113.12 230.2h-30.005q0 3.7552 1.1302 6.5625 1.1302 2.7708 3.099 4.5573 1.8958 1.75 4.4844 2.625 2.625 0.875 5.7604 0.875 4.1563 0 8.349-1.6406 4.2292-1.6771 6.0156-3.2812h0.36458v7.474q-3.4635 1.4583-7.0729 2.4427-3.6094 0.98437-7.5833 0.98437-10.135 0-15.823-5.4688-5.6875-5.5052-5.6875-15.604 0-9.9896 5.4323-15.859 5.4688-5.8698 14.365-5.8698 8.2396 0 12.688 4.8125 4.4844 4.8125 4.4844 13.672zm-6.6719-5.25q-0.0365-5.3958-2.7344-8.349-2.6615-2.9531-8.1302-2.9531-5.5052 0-8.7865 3.2448-3.2448 3.2448-3.6823 8.0573z"
     id="path43" /><path
     d="m152.6 238.11q0 5.5781-4.6302 9.151-4.5938 3.5729-12.578 3.5729-4.5208 0-8.3125-1.0573-3.7552-1.0938-6.3073-2.3698v-7.6927h0.36458q3.2448 2.4427 7.2188 3.901 3.974 1.4219 7.6198 1.4219 4.5208 0 7.0729-1.4583 2.5521-1.4583 2.5521-4.5938 0-2.4062-1.3854-3.6458-1.3854-1.2396-5.3229-2.1146-1.4583-0.32813-3.8281-0.76563-2.3333-0.4375-4.2656-0.94791-5.3594-1.4219-7.6198-4.1563-2.224-2.7708-2.224-6.7812 0-2.5156 1.0208-4.7396 1.0573-2.224 3.1719-3.974 2.0417-1.7135 5.1771-2.6979 3.1719-1.0208 7.0729-1.0208 3.6458 0 7.3646 0.91146 3.7552 0.875 6.2344 2.151v7.3281h-0.36459q-2.625-1.9323-6.3802-3.2448-3.7552-1.349-7.3646-1.349-3.7552 0-6.3438 1.4583-2.5885 1.4219-2.5885 4.2656 0 2.5156 1.5677 3.7917 1.5312 1.276 4.9583 2.0781 1.8958 0.4375 4.2292 0.875 2.3698 0.4375 3.9375 0.80208 4.776 1.0938 7.3646 3.7552 2.5886 2.6979 2.5886 7.1458z"
     id="path45" /><path
     d="m191.54 238.11q0 5.5781-4.6302 9.151-4.5938 3.5729-12.578 3.5729-4.5208 0-8.3125-1.0573-3.7552-1.0938-6.3073-2.3698v-7.6927h0.36458q3.2448 2.4427 7.2188 3.901 3.974 1.4219 7.6198 1.4219 4.5208 0 7.0729-1.4583 2.5521-1.4583 2.5521-4.5938 0-2.4062-1.3854-3.6458-1.3854-1.2396-5.3229-2.1146-1.4583-0.32813-3.8281-0.76563-2.3333-0.4375-4.2656-0.94791-5.3594-1.4219-7.6198-4.1563-2.224-2.7708-2.224-6.7812 0-2.5156 1.0208-4.7396 1.0573-2.224 3.1719-3.974 2.0417-1.7135 5.1771-2.6979 3.1719-1.0208 7.0729-1.0208 3.6458 0 7.3646 0.91146 3.7552 0.875 6.2344 2.151v7.3281h-0.36459q-2.625-1.9323-6.3802-3.2448-3.7552-1.349-7.3646-1.349-3.7552 0-6.3438 1.4583-2.5885 1.4219-2.5885 4.2656 0 2.5156 1.5677 3.7917 1.5312 1.276 4.9583 2.0781 1.8958 0.4375 4.2292 0.875 2.3698 0.4375 3.9375 0.80208 4.776 1.0938 7.3646 3.7552 2.5886 2.6979 2.5886 7.1458z"
     id="path47" /><path
     d="m267.63 234.36q0 3.1719-1.4948 6.2708-1.4583 3.099-4.1198 5.25-2.9167 2.3333-6.8177 3.6458-3.8646 1.3125-9.3333 1.3125-5.8698 0-10.573-1.0938-4.6667-1.0938-9.5156-3.2448v-9.0417h0.51041q4.1198 3.4271 9.5156 5.2865 5.3958 1.8594 10.135 1.8594 6.7083 0 10.427-2.5156 3.7552-2.5156 3.7552-6.7083 0-3.6094-1.7865-5.3229-1.75-1.7135-5.3594-2.6615-2.7344-0.72917-5.9427-1.2031-3.1719-0.47396-6.7448-1.2031-7.2188-1.5312-10.719-5.2135-3.4636-3.7188-3.4636-9.6615 0-6.8177 5.7604-11.156 5.7604-4.375 14.62-4.375 5.724 0 10.5 1.0938 4.776 1.0938 8.4583 2.6979v8.5313h-0.51041q-3.099-2.625-8.1667-4.3386-5.0312-1.75-10.318-1.75-5.7969 0-9.3333 2.4062-3.5 2.4063-3.5 6.1979 0 3.3906 1.75 5.3229 1.75 1.9323 6.1615 2.9531 2.3333 0.51042 6.6354 1.2396 4.3021 0.72917 7.2917 1.4948 6.0521 1.6042 9.1146 4.849 3.0625 3.2448 3.0625 9.0781z"
     id="path49" /><path
     d="m312.44 249.85h-6.8542v-4.5208q-3.4635 2.7344-6.6354 4.1927-3.1719 1.4583-7 1.4583-6.4167 0-9.9896-3.901-3.5729-3.9375-3.5729-11.521v-26.432h6.8542v23.188q0 3.099 0.29167 5.3229 0.29167 2.1875 1.2396 3.7552 0.98438 1.6042 2.5521 2.3333 1.5677 0.72917 4.5573 0.72917 2.6615 0 5.7969-1.3854 3.1719-1.3854 5.9062-3.5365v-30.406h6.8542z"
     id="path51" /><path
     d="m333.29 202.31h-7.7292v-7.1094h7.7292zm-0.4375 47.542h-6.8542v-40.724h6.8542z"
     id="path53" /><path
     d="m367.64 249.49q-1.9323 0.51042-4.2292 0.83854-2.2604 0.32813-4.0469 0.32813-6.2344 0-9.4792-3.3542-3.2448-3.3542-3.2448-10.755v-21.656h-4.6302v-5.7604h4.6302v-11.703h6.8542v11.703h14.146v5.7604h-14.146v18.557q0 3.2083 0.14584 5.0312 0.14583 1.7865 1.0208 3.3542 0.80208 1.4583 2.1875 2.151 1.4219 0.65625 4.3021 0.65625 1.6771 0 3.5-0.47396 1.8229-0.51041 2.625-0.83854h0.36458z"
     id="path55" /><path
     d="m410.04 230.2h-30.005q0 3.7552 1.1302 6.5625 1.1302 2.7708 3.099 4.5573 1.8958 1.75 4.4844 2.625 2.625 0.875 5.7604 0.875 4.1563 0 8.349-1.6406 4.2292-1.6771 6.0156-3.2812h0.36459v7.474q-3.4636 1.4583-7.0729 2.4427-3.6094 0.98437-7.5833 0.98437-10.135 0-15.823-5.4688-5.6875-5.5052-5.6875-15.604 0-9.9896 5.4323-15.859 5.4688-5.8698 14.365-5.8698 8.2396 0 12.688 4.8125 4.4844 4.8125 4.4844 13.672zm-6.6719-5.25q-0.0365-5.3958-2.7344-8.349-2.6615-2.9531-8.1302-2.9531-5.5052 0-8.7865 3.2448-3.2448 3.2448-3.6823 8.0573z"
     id="path57" /></g><g
   transform="matrix(1 0 0 1.0361 0 -5.5313)"
   stroke-width=".67516"
   id="g67"><path
     d="m-103.98 101.85c0 7.1683 1.6828 12.672 3.8822 16.001 2.8837 4.361 7.1849 6.2086 11.57 6.2086 5.6557 0 10.83-1.3122 20.8-14.206 7.9878-10.335 17.4-24.841 23.733-33.935l10.725-15.407c7.4502-10.7 16.073-22.595 25.96-30.658 8.0716-6.5807 16.779-10.237 25.541-10.237 14.712 0 28.725 7.9713 39.45 22.922 11.737 16.373 17.435 36.997 17.435 58.28 0 12.652-2.6673 21.949-7.2058 29.293-4.3849 7.103-12.931 14.199-27.308 14.199v-20.251c12.31 0 15.382-10.576 15.382-22.68 0-17.248-4.3011-36.39-13.776-50.067-6.724-9.7013-15.438-15.629-25.025-15.629-10.369 0-18.713 7.3119-28.09 20.349-4.9854 6.9267-10.103 15.368-15.85 24.893l-6.326 10.478c-12.708 21.067-15.927 25.866-22.281 33.785-11.137 13.867-20.647 19.122-33.166 19.122-14.851 0-24.243-6.0128-30.059-15.074-4.748-7.3837-7.0801-17.072-7.0801-28.112z"
     fill="#0081fb"
     id="path61" /><path
     d="m-108.57 43.965c9.9429-14.33 24.292-24.351 40.749-24.351 9.5309 0 19.006 2.6375 28.9 10.191 10.823 8.2585 22.358 21.857 36.748 44.27l5.16 8.0431c12.457 19.403 19.544 29.385 23.691 34.092 5.3345 6.0454 9.0701 7.8472 13.923 7.8472 12.31 0 15.382-10.576 15.382-22.68l19.132-0.56145c0 12.652-2.6673 21.949-7.2058 29.293-4.3849 7.103-12.931 14.199-27.308 14.199-8.9374 0-16.855-1.8149-25.611-9.5381-6.731-5.9279-14.6-16.458-20.654-25.925l-18.008-28.125c-9.0352-14.115-17.323-24.639-22.12-29.404-5.16-5.1249-11.793-11.314-22.378-11.314-8.5674 0-15.843 5.621-21.932 14.219z"
     fill="url(#Grad_Logo1-7)"
     id="path63" /><path
     d="m-68.166 40.002c-8.5674 0-15.843 5.621-21.932 14.219-8.6093 12.15-13.881 30.247-13.881 47.625 0 7.1683 1.6828 12.672 3.8822 16.001l-18.489 11.386c-4.748-7.3837-7.0801-17.072-7.0801-28.112 0-20.075 5.8931-40.999 17.1-57.157 9.9429-14.33 24.292-24.351 40.749-24.351z"
     fill="url(#Grad_Logo2-9)"
     id="path65" /></g></svg>
