<?xml version="1.0" encoding="UTF-8"?>
<svg id="layer" width="652" height="355" version="1.1" viewBox="-153 -46 652 355" xml:space="preserve" xmlns="http://www.w3.org/2000/svg" xmlns:cc="http://creativecommons.org/ns#" xmlns:dc="http://purl.org/dc/elements/1.1/" xmlns:rdf="http://www.w3.org/1999/02/22-rdf-syntax-ns#"><metadata><rdf:RDF><cc:Work rdf:about=""><dc:format>image/svg+xml</dc:format><dc:type rdf:resource="http://purl.org/dc/dcmitype/StillImage"/><dc:title/></cc:Work></rdf:RDF></metadata>
<style type="text/css">
	.st0{fill:#E40041;}
	.st1{fill:#29235C;}
</style>
<path class="st0" d="m145.3 51.1v86.9h-27.3v-128.8h32.9l52 87.2v-87.2h27.1v128.7h-32.7zm-78.7 110.5h51.2v-23.9h-25.1v-128.6h25.2v-23.9h-51.3zm214.7-176.2h-51.2v23.9h25.2v128.6h-25.2v23.9h51.2z"/>
<path class="st1" d="m-126 276.9v-53.8h35.2v8.3h-26.1v13.9h24.3v8.4h-24.3v23.3h-9.1zm88.1 0h10.8l-12.3-19.9c6.9-2.6 11-8.4 11-16.4 0-11.2-8-17.6-20.5-17.6h-20.5v53.8h9.1v-18.3h11.1zm-12.2-45.5c7.8 0 12.5 2.8 12.5 9.4 0 6.9-4.8 9.4-12.5 9.4h-10.2v-18.8zm68.9-8.3h-9.3l-21 53.8h9.7l4.5-11.4h23l4.5 11.4h9.6zm-4.7 12.4 8.2 21.5h-16.4zm80.6 41.4h9.2v-53.8h-9.2v38.1l-26.7-38.1h-9.1v53.8h9.1v-37.9zm73.3-15.6c-3.7 4.9-8.6 8.1-15.5 8.1-10.9 0-18.9-8.2-18.9-19.3 0-11.3 8-19.5 18.6-19.5 7 0 11.7 3.4 14.9 7.9l5.9-6.1c-4.5-6.1-11.4-10.1-21-10.1-15.8 0-27.8 11.1-27.8 27.9 0 16.4 12 27.6 28.1 27.6 10.1 0 16.7-4.1 21.4-10.1zm26.2 15.6h37.8v-8.3h-28.7v-15h27.4v-8.4h-27.4v-13.9h28.7v-8.3h-37.8zm128.6 0h9.2v-53.8h-9.2v38.1l-26.7-38.1h-9.1v53.8h9.1v-37.9zm66.9-23.9c0 10-3.4 16.4-12.5 16.4s-12.5-6.4-12.5-16.3v-30h-9.2v29.9c0 16.4 8.8 24.7 21.7 24.7 13 0 21.7-8.3 21.7-24.7v-29.9h-9.2zm54.3 12h8.4l12.4-23.6v35.5h9.1v-53.8h-9.6l-16.2 31.8-16.1-31.8h-9.6v53.8h9.1v-35.5z"/>
</svg>
