<?xml version="1.0" encoding="UTF-8"?>
<svg id="layer" width="652" height="355" version="1.1" viewBox="-153 -46 652 355" xml:space="preserve" xmlns="http://www.w3.org/2000/svg" xmlns:cc="http://creativecommons.org/ns#" xmlns:dc="http://purl.org/dc/elements/1.1/" xmlns:rdf="http://www.w3.org/1999/02/22-rdf-syntax-ns#"><metadata><rdf:RDF><cc:Work rdf:about=""><dc:format>image/svg+xml</dc:format><dc:type rdf:resource="http://purl.org/dc/dcmitype/StillImage"/><dc:title/></cc:Work></rdf:RDF></metadata>
<style type="text/css">
	.st0{fill:#E40041;}
	.st1{fill:#29235C;}
</style>


<g transform="matrix(.70561 0 0 -.90153 -125.67 306.99)"><g fill="#6f7173"><path d="m200.16 183.28v-53.078h32.696c7.781 0 14.222 2.617 19.32 7.852 5.234 5.234 7.855 11.465 7.855 18.683 0 7.079-2.621 13.231-7.855 18.477-5.098 5.375-11.539 8.066-19.32 8.066zm0-71.769v-61.57h-19.531v152.02h51.801c13.164 0 24.347-4.391 33.547-13.164 9.343-8.773 14.011-19.461 14.011-32.059 0-12.882-4.668-23.632-14.011-32.265-9.059-8.645-20.243-12.961-33.547-12.961h-32.27"/><path d="m306.95 81.793c0-5.0977 2.152-9.3477 6.473-12.746 4.316-3.3985 9.375-5.0977 15.183-5.0977 8.207 0 15.532 3.0469 21.969 9.1328 6.442 6.0821 9.664 13.23 9.664 21.445-6.09 4.8125-14.578 7.2147-25.476 7.2147-7.93 0-14.547-1.9022-19.856-5.7303-5.305-3.8203-7.957-8.5664-7.957-14.219zm25.262 75.574c14.437 0 25.832-3.855 34.183-11.562 8.352-7.723 12.528-18.301 12.528-31.746v-64.122h-18.684v14.441h-0.847c-8.075-11.894-18.829-17.832-32.274-17.832-11.465 0-21.058 3.3906-28.766 10.188-7.722 6.7969-11.574 15.293-11.574 25.476 0 10.754 4.067 19.328 12.207 25.695 8.141 6.367 19.004 9.551 32.594 9.551 11.602 0 21.156-2.121 28.66-6.367v4.461c0 6.789-2.687 12.558-8.066 17.297-5.379 4.746-11.68 7.117-18.903 7.117-10.894 0-19.531-4.598-25.894-13.797l-17.199 10.82c9.476 13.594 23.492 20.379 42.035 20.379"/><path d="m522.88 48.246c-8.496 0-15.535 2.6172-21.121 7.8516-5.598 5.2343-8.469 12.531-8.606 21.867v58.172h-18.261v17.843h18.261v31.844h19.532v-31.844h25.476v-17.843h-25.476v-51.805c0-6.9336 1.347-11.641 4.035-14.113 2.691-2.4805 5.73-3.7188 9.129-3.7188 1.562 0 3.086 0.1758 4.57 0.5352 1.484 0.3515 2.859 0.8125 4.141 1.3789l6.152-17.414c-5.098-1.8359-11.035-2.7539-17.832-2.7539zm-121.87 105.73h18.687v-16.992h0.844c5.809 13.309 17.77 19.961 35.887 19.961l4.031-0.422v-20.39l-8.699 0.851c-9.063 0-16.531-2.793-22.402-8.39-5.875-5.586-8.817-12.696-8.817-21.328v-57.332h-19.531v104.04"/><path d="m557.9 153.98h18.684v-14.445h0.852c2.964 5.098 7.539 9.348 13.691 12.746 6.16 3.399 12.559 5.086 19.219 5.086 12.73 0 22.539-3.64 29.402-10.926 6.863-7.296 10.293-17.656 10.293-31.105v-65.398h-19.531v64.122c-0.418 16.992-8.985 25.476-25.684 25.476-7.793 0-14.305-3.144-19.543-9.441-5.23-6.301-7.847-13.84-7.847-22.617v-57.54h-19.536v104.04"/><path d="m688.47 114.49h59.668c-0.571 7.215-3.508 13.192-8.821 17.938-5.3 4.738-12.414 7.109-21.34 7.109-7.351 0-13.687-2.265-18.992-6.785-5.312-4.543-8.816-10.625-10.515-18.262zm31.211-67.941c-15.286 0-27.883 5.2344-37.786 15.715-9.914 10.469-14.863 23.699-14.863 39.695 0 15.852 4.805 29.055 14.434 39.602 9.629 10.535 21.933 15.808 36.941 15.808 15.434 0 27.707-4.98 36.84-14.961 9.129-9.98 13.691-23.965 13.691-41.933l-0.207-2.1292h-81.75c0.286-10.184 3.684-18.398 10.2-24.629 6.504-6.2304 14.296-9.3359 23.347-9.3359 12.461 0 22.227 6.2227 29.309 18.684l17.398-8.4961c-4.668-8.7695-11.14-15.637-19.422-20.586-8.281-4.961-17.656-7.4336-28.132-7.4336"/><path d="m806.31 49.938h-19.54v104.04h18.692v-16.992h0.848c1.972 5.528 6.042 10.223 12.207 14.121 6.152 3.895 12.207 5.84 18.156 5.84 5.652 0 10.469-0.851 14.429-2.551l-5.945-18.894c-2.402 0.984-6.23 1.484-11.465 1.484-7.363 0-13.769-2.968-19.211-8.918-5.449-5.945-8.171-12.879-8.171-20.8v-57.332"/></g><path d="m224.88 290.79v-13.258h31.73c-1.023-8.371-4.496-14.883-10.414-19.543-5.765-4.578-12.871-6.863-21.316-6.863-9.785 0-18.039 3.434-24.746 10.301-6.711 6.789-10.067 15.113-10.067 24.98 0 9.871 3.356 18.195 10.067 24.988 6.707 6.868 14.961 10.301 24.746 10.301 9.156 0 17.129-3.16 23.918-9.472l9.355 9.355c-9.394 8.918-20.48 13.379-33.273 13.379-8.684 0-16.891-2.211-24.633-6.629-7.652-4.344-13.695-10.305-18.113-17.883-4.34-7.422-6.516-15.433-6.516-24.039 0-8.68 2.176-16.73 6.516-24.152 4.34-7.5 10.383-13.418 18.113-17.762 7.742-4.422 15.949-6.629 24.633-6.629 13.105 0 23.957 4.102 32.562 12.313 8.524 8.133 12.789 18.902 12.789 32.324 0 3.156-0.238 5.926-0.71 8.289h-44.641" fill="#4f77c4"/><path d="m318.78 255.62c-3.398-3.633-7.539-5.445-12.429-5.445-4.977 0-9.16 1.812-12.555 5.445s-5.094 8.129-5.094 13.5c0 5.523 1.699 10.027 5.094 13.496 3.395 3.633 7.578 5.449 12.555 5.449 4.968 0 9.156-1.816 12.547-5.449 3.394-3.469 5.093-7.973 5.093-13.496 0-5.285-1.738-9.789-5.211-13.5zm-12.429 44.762c-8.926 0-16.383-3.004-22.383-9-6-5.922-9-13.344-9-22.262 0-8.766 3.039-16.18 9.117-22.262 6-6 13.422-8.996 22.266-8.996 8.836 0 16.257 2.996 22.261 8.996 6.075 6.082 9.114 13.496 9.114 22.262 0 8.918-3.039 16.34-9.114 22.262-6.004 5.996-13.425 9-22.261 9" fill="#ee282a"/><path d="m481.23 239.76h13.731v91.883h-13.731v-91.883" fill="#1daf47"/><path d="m387.22 255.62c-3.395-3.633-7.539-5.445-12.43-5.445-4.976 0-9.16 1.812-12.555 5.445-3.394 3.633-5.085 8.129-5.085 13.5 0 5.523 1.691 10.027 5.085 13.496 3.395 3.633 7.579 5.449 12.555 5.449 4.969 0 9.156-1.816 12.547-5.449 3.395-3.469 5.094-7.973 5.094-13.496 0-5.285-1.738-9.789-5.211-13.5zm-12.43 44.762c-8.922 0-16.383-3.004-22.379-9-6-5.922-9-13.344-9-22.262 0-8.766 3.039-16.18 9.117-22.262 5.997-6 13.418-8.996 22.262-8.996 8.836 0 16.258 2.996 22.262 8.996 6.078 6.082 9.113 13.496 9.113 22.262 0 8.918-3.035 16.34-9.113 22.262-6.004 5.996-13.426 9-22.262 9" fill="#f9af0b"/><path d="m519.95 283.1c3.469 3.468 7.336 5.207 11.606 5.207 2.675 0 5.086-0.61 7.222-1.836 2.129-1.219 3.586-2.821 4.375-4.793l-27.937-11.602c-0.164 5.285 1.418 9.629 4.734 13.024zm12.668-32.918c-6.863 0-11.926 3.156-15.156 9.472l41.797 17.286-1.414 3.554c-1.114 2.922-2.551 5.602-4.328 8.055-1.778 2.445-3.809 4.555-6.094 6.332-2.293 1.777-4.824 3.141-7.578 4.086-2.762 0.949-5.684 1.422-8.77 1.422-8.359 0-15.39-2.961-21.074-8.883-5.606-6-8.406-13.461-8.406-22.379 0-8.844 2.957-16.266 8.886-22.262 5.914-6 13.297-8.996 22.137-8.996 11.055 0 19.738 4.613 26.055 13.852l-10.664 7.105c-3.867-5.761-8.992-8.644-15.391-8.644" fill="#ee282a"/><path d="m454.83 255.51c-3.242-3.551-7.187-5.328-11.844-5.328-4.894 0-9.035 1.812-12.429 5.445-3.317 3.633-4.977 8.09-4.977 13.383 0 5.367 1.695 9.863 5.094 13.496 3.473 3.711 7.574 5.566 12.312 5.566 4.735 0 8.68-1.816 11.844-5.449 3.235-3.711 4.856-8.246 4.856-13.613 0-5.293-1.621-9.789-4.856-13.5zm3.906 37.89h-0.476c-3.945 4.661-9.426 6.989-16.457 6.989-8.051 0-15.078-3.082-21.074-9.239-5.922-6.156-8.883-13.543-8.883-22.14 0-8.524 2.961-15.867 8.883-22.028 6.078-6.078 13.101-9.113 21.074-9.113 7.031 0 12.512 2.367 16.457 7.106h0.476v-3.2c0-13.101-5.566-19.656-16.699-19.656-3.547 0-6.703 1.028-9.469 3.078-2.761 2.055-4.855 4.739-6.273 8.051l-11.965-4.969c1.188-2.765 2.688-5.273 4.504-7.519 1.816-2.25 3.926-4.188 6.332-5.809 2.406-1.613 5.035-2.875 7.879-3.789 2.84-0.902 5.84-1.355 8.992-1.355 9.317 0 16.602 2.824 21.848 8.461 5.254 5.644 7.879 13.675 7.879 24.097v56.129h-13.028v-5.094" fill="#4f77c4"/><path d="m0 47.77h99.637v289.37h-99.637v-289.37" fill="#4f77c4"/></g></svg>
