<?xml version="1.0" encoding="UTF-8"?>
<svg id="layer" width="652" height="355" version="1.1" viewBox="-153 -46 652 355" xml:space="preserve" xmlns="http://www.w3.org/2000/svg" xmlns:cc="http://creativecommons.org/ns#" xmlns:dc="http://purl.org/dc/elements/1.1/" xmlns:rdf="http://www.w3.org/1999/02/22-rdf-syntax-ns#"><metadata><rdf:RDF><cc:Work rdf:about=""><dc:format>image/svg+xml</dc:format><dc:type rdf:resource="http://purl.org/dc/dcmitype/StillImage"/><dc:title/></cc:Work></rdf:RDF></metadata>
<style type="text/css">
	.st0{fill:#E40041;}
	.st1{fill:#29235C;}
</style><g stroke-width="1.0131">


<path d="m3.4504 35.689c-0.098117-0.94142-0.88301-1.3598-1.4717-1.3598-0.58868 0-13.441-1.046-13.441-1.046s-8.9282-9.5189-10.007-10.46c-0.98113-1.046-2.8453-0.73222-3.6302-0.52302-0.09812 0-1.9623 0.62762-5.0037 1.6736-3.0415-9.3096-8.2415-17.782-17.562-17.782h-0.88301c-2.5509-3.5565-5.8868-5.2301-8.6339-5.2301-21.585 0-31.985 28.766-35.222 43.41-8.4377 2.8243-14.423 4.7071-15.109 5.0209-4.7094 1.569-4.8075 1.6736-5.3962 6.3808-0.49057 3.5565-12.755 104.71-12.755 104.71l95.464 19.038 51.803-11.925c0.098113-0.20921-18.053-130.96-18.151-131.9zm-38.853-10.251c-2.3547 0.73222-5.2 1.6736-8.0452 2.7197v-1.8828c0-5.6486-0.68679-10.251-1.9623-13.912 4.9056 0.62762 7.9471 6.3808 10.007 13.075zm-15.992-11.925c1.2755 3.5565 2.1585 8.5774 2.1585 15.481v1.046c-5.2981 1.7782-10.891 3.5565-16.679 5.5439 3.2377-13.18 9.4188-19.665 14.521-22.071zm-6.2792-6.4854c0.98113 0 1.9623 0.41841 2.7472 1.046-6.966 3.4519-14.324 12.134-17.366 29.707-4.6113 1.569-9.0264 2.9289-13.245 4.3933 3.5321-13.389 12.362-35.147 27.864-35.147z" fill="#95bf47"/><path d="m1.9787 34.12c-0.58868 0-13.441-1.046-13.441-1.046s-8.9282-9.5189-10.007-10.46c-0.39245-0.41841-0.88302-0.62762-1.2755-0.62762l-7.1622 157.53 51.803-11.925s-18.151-130.96-18.249-131.9c-0.39245-0.94142-1.0792-1.3598-1.6679-1.569z" fill="#5e8e3e"/><path d="m-47.666 64.664-6.2792 20.188s-5.6905-3.2427-12.46-3.2427c-10.106 0-10.596 6.7992-10.596 8.4728 0 9.205 22.566 12.762 22.566 34.414 0 17.05-10.106 28.034-23.743 28.034-16.483 0-24.724-10.879-24.724-10.879l4.4151-15.481s8.6339 7.9498 15.894 7.9498c4.8075 0 6.7698-3.9749 6.7698-6.9038 0-12.029-18.445-12.552-18.445-32.427 0-16.632 11.185-32.741 33.849-32.741 8.4377-0.1046 12.755 2.6151 12.755 2.6151z" fill="#fff"/><path d="m82.039 102.63c-5.2-2.9289-7.849-5.544-7.849-8.9958 0-4.3933 3.7283-7.2176 9.5169-7.2176 6.7698 0 12.755 2.9289 12.755 2.9289l4.7094-15.377s-4.317-3.5565-17.072-3.5565c-17.758 0-30.121 10.879-30.121 26.151 0 8.682 5.7886 15.272 13.441 19.979 6.2792 3.6611 8.4377 6.3808 8.4377 10.356 0 4.0795-3.1396 7.4268-8.9282 7.4268-8.5358 0-16.679-4.7071-16.679-4.7071l-5.0037 15.377s7.4566 5.3347 20.015 5.3347c18.249 0 31.494-9.6234 31.494-26.883-0.19622-9.4142-6.7698-15.9-14.717-20.816zm72.8-32.427c-9.0264 0-16.09 4.6025-21.487 11.506l-0.19621-0.10461 7.849-43.515h-20.309l-19.819 110.88h20.309l6.7698-37.866c2.649-14.331 9.615-23.222 16.09-23.222 4.6113 0 6.3773 3.3473 6.3773 8.0544 0 2.9289-0.19623 6.6946-0.88302 9.6234l-7.6528 43.41h20.309l7.9471-44.77c0.88303-4.7071 1.4717-10.356 1.4717-14.226-0.0981-12.448-6.083-19.77-16.777-19.77zm62.694 0c-24.528 0-40.717 23.536-40.717 49.791 0 16.736 9.7132 30.335 27.962 30.335 24.038 0 40.226-22.908 40.226-49.791 0.0981-15.586-8.3396-30.335-27.472-30.335zm-10.007 63.598c-6.966 0-9.8113-6.2762-9.8113-14.226 0-12.448 5.9849-32.636 17.072-32.636 7.1622 0 9.615 6.6946 9.615 13.075 0 13.285-6.1811 33.787-16.875 33.787zm89.577-63.598c-13.736 0-21.487 12.971-21.487 12.971h-0.19623l1.1773-11.611h-18.053c-0.88302 7.8452-2.5509 19.875-4.1207 28.766l-14.03 79.394h20.309l5.6905-32.113h0.49056s4.2188 2.8243 11.872 2.8243c23.939 0 39.539-26.151 39.539-52.511-0.0981-14.644-6.2792-27.72-21.192-27.72zm-19.426 63.808c-5.2981 0-8.4377-3.2427-8.4377-3.2427l3.3358-20.188c2.3547-13.598 9.0264-22.49 16.09-22.49 6.2792 0 8.1434 6.1716 8.1434 11.925 0.0981 14.017-7.7509 33.996-19.132 33.996zm69.562-94.875c-6.4754 0-11.675 5.5439-11.675 12.552 0 6.3808 3.8264 10.879 9.615 10.879h0.19622c6.3773 0 11.774-4.6025 11.872-12.552 0.0981-6.3808-3.9245-10.879-10.008-10.879zm-28.453 109.73h20.309l13.736-76.988h-20.407m72.211-0.1046h-14.128l0.68678-3.5565c1.1774-7.4268 5.2981-13.912 12.166-13.912 3.6302 0 6.4754 1.1506 6.4754 1.1506l3.9245-17.05s-3.4339-1.8829-11.087-1.8829c-7.1622 0-14.423 2.1967-19.917 7.2176-6.966 6.2762-10.204 15.377-11.774 24.582l-0.58867 3.5565h-9.5169l-3.0415 16.423h9.5169l-10.792 60.67h20.309l10.792-60.67h14.03zm48.958 0.1046s-12.755 34.205-18.347 52.929h-0.19624c-0.39245-6.067-5.0037-52.929-5.0037-52.929h-21.389l12.264 70.502c0.19623 1.569 0.0981 2.5105-0.49057 3.5565-2.3547 4.9163-6.3773 9.6235-11.087 13.075-3.8264 2.9289-8.1434 4.9163-11.577 6.1716l5.6906 18.41c4.1207-0.94141 12.755-4.6025 19.917-11.82 9.2226-9.205 17.856-23.536 26.687-42.992l24.822-57.009h-21.29z"/></g><text x="42.358814" y="255.85205" fill="#000000" font-family="sans-serif" font-size="80px" style="line-height:1.25" xml:space="preserve"><tspan x="42.358814" y="255.85205" fill="#666666" font-family="sans-serif" font-size="80px" font-style="italic">Partners</tspan></text></svg>
